<?xml version="1.0" standalone="no"?><!DOCTYPE svg PUBLIC "-//W3C//DTD SVG 1.1//EN" "http://www.w3.org/Graphics/SVG/1.1/DTD/svg11.dtd"><svg t="1589012307351" class="icon" viewBox="0 0 1024 1024" version="1.1" xmlns="http://www.w3.org/2000/svg" p-id="17462" xmlns:xlink="http://www.w3.org/1999/xlink" width="64" height="64"><defs><style type="text/css"></style></defs><path d="M507.52 1014.933333l-10.666667-6.4c-260.266667-155.733333-390.4-294.4-396.8-426.666666 0-12.8 8.533333-21.333333 19.2-23.466667 12.8 0 21.333333 8.533333 23.466667 19.2 6.4 113.066667 130.133333 243.2 364.8 386.133333 236.8-121.6 360.533333-275.2 369.066667-460.8h-115.2c-12.8 0-21.333333-8.533333-21.333334-21.333333s8.533333-21.333333 21.333334-21.333333h157.866666v21.333333c0 215.466667-136.533333 390.4-403.2 524.8l-8.533333 8.533333z m-258.133333-509.866666H93.653333v-386.133334h21.333334c100.266667 0 230.4-36.266667 384-108.8l8.533333-6.4 8.533333 4.266667c136.533333 72.533333 264.533333 108.8 381.866667 108.8h21.333333v266.666667c0 12.8-8.533333 21.333333-21.333333 21.333333s-21.333333-8.533333-21.333333-21.333333v-221.866667c-115.2-4.266667-241.066667-40.533333-371.2-108.8-142.933333 66.133333-268.8 102.4-369.066667 106.666667v300.8h113.066667c12.8 0 21.333333 8.533333 21.333333 21.333333s-10.666667 23.466667-21.333333 23.466667z" fill="#00D2FF" p-id="17463"></path><path d="M763.52 483.733333c-4.266667-136.533333-117.333333-245.333333-256-245.333333s-251.733333 108.8-256 245.333333h-138.666667c2.133333-198.4 2.133333-311.466667 2.133334-343.466666 104.533333 0 234.666667-36.266667 392.533333-110.933334 140.8 72.533333 270.933333 110.933333 392.533333 110.933334v343.466666h-136.533333z m-512 0v8.533334c0 140.8 115.2 253.866667 256 253.866666s256-113.066667 256-253.866666v-8.533334h136.533333c0 206.933333-130.133333 375.466667-392.533333 505.6-249.6-149.333333-379.733333-285.866667-386.133333-409.6-4.266667-40.533333-6.4-72.533333-6.4-96h136.533333z" fill="#00D2FF" opacity=".2" p-id="17464"></path><path d="M475.52 31.466667h64v204.8h-64zM480.021333 989.696l0.512-256 64 0.106667-0.512 256z" fill="#00D2FF" p-id="17465"></path><path d="M507.52 754.666667c-147.2 0-266.666667-119.466667-266.666667-264.533334s119.466667-264.533333 266.666667-264.533333c108.8 0 204.8 64 247.466667 164.266667 12.8 32 19.2 66.133333 19.2 100.266666 0 147.2-119.466667 264.533333-266.666667 264.533334z m0-507.733334c-134.4 0-245.333333 108.8-245.333333 243.2 0 134.4 108.8 243.2 245.333333 243.2s245.333333-108.8 245.333333-243.2c0-32-6.4-61.866667-17.066666-91.733333-38.4-91.733333-128-151.466667-228.266667-151.466667z" fill="#00D2FF" p-id="17466"></path><path d="M390.186667 515.733333a128 119.466667 90 1 0 238.933333 0 128 119.466667 90 1 0-238.933333 0Z" fill="#00D2FF" opacity=".2" p-id="17467"></path><path d="M454.186667 332.266667a55.466667 55.466667 0 1 0 110.933333 0 55.466667 55.466667 0 1 0-110.933333 0Z" fill="#00D2FF" opacity=".2" p-id="17468"></path><path d="M693.12 492.266667h-46.933333c-2.133333-21.333333-10.666667-42.666667-19.2-61.866667 17.066667-14.933333 29.866667-32 38.4-53.333333 2.133333-4.266667 0-12.8-4.266667-19.2-4.266667-2.133333-12.8 0-17.066667 4.266666-6.4 14.933333-17.066667 32-32 42.666667-6.4-8.533333-17.066667-17.066667-27.733333-25.6 0 0 0-2.133333 2.133333-2.133333 0-4.266667 2.133333-10.666667 2.133334-14.933334 0-44.8-34.133333-83.2-74.666667-83.2s-76.8 36.266667-76.8 83.2c0 4.266667 0 10.666667 2.133333 14.933334 0 2.133333 0 2.133333 2.133334 2.133333-14.933333 8.533333-23.466667 14.933333-32 29.866667-12.8-12.8-23.466667-25.6-32-42.666667-2.133333-8.533333-10.666667-10.666667-17.066667-8.533333-4.266667 2.133333-6.4 10.666667-4.266667 19.2 10.666667 19.2 21.333333 36.266667 38.4 53.333333-10.666667 14.933333-17.066667 36.266667-19.2 61.866667h-46.933333c-6.4 0-12.8 4.266667-12.8 12.8 0 8.533333 4.266667 12.8 12.8 12.8h46.933333c2.133333 19.2 4.266667 36.266667 12.8 53.333333-19.2 14.933333-36.266667 36.266667-46.933333 61.866667-2.133333 4.266667 0 12.8 4.266667 19.2 2.133333 0 2.133333 2.133333 4.266666 2.133333 4.266667 0 10.666667-2.133333 10.666667-8.533333 10.666667-19.2 21.333333-34.133333 36.266667-46.933334 23.466667 36.266667 66.133333 61.866667 110.933333 61.866667 46.933333 0 85.333333-23.466667 110.933333-61.866667 14.933333 12.8 29.866667 29.866667 36.266667 46.933334 2.133333 4.266667 6.4 8.533333 12.8 8.533333 2.133333 0 2.133333 0 4.266667-2.133333 4.266667-2.133333 10.666667-10.666667 4.266666-19.2-10.666667-23.466667-25.6-44.8-46.933333-61.866667 6.4-14.933333 12.8-34.133333 12.8-53.333333h49.066667c6.4 0 12.8-4.266667 12.8-12.8-2.133333-8.533333-4.266667-12.8-10.666667-12.8z m-238.933333-128c0-34.133333 23.466667-57.6 55.466666-57.6s55.466667 25.6 55.466667 57.6v6.4c-19.2-6.4-36.266667-10.666667-55.466667-10.666667-19.2 0-36.266667 6.4-55.466666 10.666667v-6.4z m-55.466667 145.066666c0-64 44.8-115.2 100.266667-121.6v245.333334c-55.466667-8.533333-100.266667-59.733333-100.266667-123.733334z m119.466667 123.733334v-245.333334c57.6 8.533333 100.266667 57.6 100.266666 121.6s-42.666667 115.2-100.266666 123.733334z" fill="#00D2FF" p-id="17469"></path></svg>