<?xml version="1.0" standalone="no"?><!DOCTYPE svg PUBLIC "-//W3C//DTD SVG 1.1//EN" "http://www.w3.org/Graphics/SVG/1.1/DTD/svg11.dtd"><svg t="1589011870226" class="icon" viewBox="0 0 1024 1024" version="1.1" xmlns="http://www.w3.org/2000/svg" p-id="2833" width="64" height="64" xmlns:xlink="http://www.w3.org/1999/xlink"><defs><style type="text/css"></style></defs><path d="M736.278 739.378h-450.9c-95.3 0-172.8-77.5-172.8-172.8v-280.2c0-95.3 77.5-172.8 172.8-172.8h450.9c95.3 0 172.8 77.5 172.8 172.8v280.2c0 95.3-77.5 172.8-172.8 172.8z m-450.9-536.2c-45.9 0-83.2 37.3-83.2 83.2v280.2c0 45.9 37.3 83.2 83.2 83.2h450.9c45.9 0 83.2-37.3 83.2-83.2v-280.2c0-45.9-37.3-83.2-83.2-83.2h-450.9z" fill="#3F85FF" p-id="2834"></path><path d="M738.378 357.478h-256c-24.8 0-44.8-20.1-44.8-44.8 0-24.8 20.1-44.8 44.8-44.8h256c24.8 0 44.8 20.1 44.8 44.8 0 24.7-20.1 44.8-44.8 44.8zM738.378 585.078h-56.9c-24.8 0 19.2-20.1 19.2-44.8 0-24.8-43.9-44.8-19.2-44.8h56.9c24.8 0 44.8 20.1 44.8 44.8 0 24.7-20.1 44.8-44.8 44.8zM340.078 357.478h-56.9c-24.8 0-44.8-20.1-44.8-44.8 0-24.8 20.1-44.8 44.8-44.8h56.9c24.8 0 21.9 20.1 21.9 44.8 0 24.7 2.9 44.8-21.9 44.8zM567.678 585.078h-284.5c-24.8 0-44.8-20.1-44.8-44.8 0-24.8 20.1-44.8 44.8-44.8h284.5c24.8 0-19.2 20.1-19.2 44.8 0 24.7 43.9 44.8 19.2 44.8z" fill="#A4BEEC" p-id="2835"></path><path d="M396.978 421.478c-60 0-108.8-48.8-108.8-108.8s48.8-108.8 108.8-108.8 108.8 48.8 108.8 108.8-48.8 108.8-108.8 108.8z m0-128c-10.6 0-19.2 8.6-19.2 19.2s8.6 19.2 19.2 19.2 19.2-8.6 19.2-19.2-8.6-19.2-19.2-19.2zM624.578 649.078c-60 0-108.8-48.8-108.8-108.8s48.8-108.8 108.8-108.8 108.8 48.8 108.8 108.8-48.8 108.8-108.8 108.8z m0-128c-10.6 0-19.2 8.6-19.2 19.2s8.6 19.2 19.2 19.2 19.2-8.7 19.2-19.2c0-10.6-8.7-19.2-19.2-19.2z" fill="#3F85FF" p-id="2836"></path><path d="M766.778 808.378h-211.2v-68.9h-89.6v68.9h-211.2c-24.8 0-44.8 20.1-44.8 44.8 0 24.8 20.1 44.8 44.8 44.8h512c24.8 0 44.8-20.1 44.8-44.8 0.1-24.8-20-44.8-44.8-44.8z" fill="#A4BEEC" p-id="2837"></path></svg>