<?xml version="1.0" standalone="no"?><!DOCTYPE svg PUBLIC "-//W3C//DTD SVG 1.1//EN" "http://www.w3.org/Graphics/SVG/1.1/DTD/svg11.dtd"><svg t="1588753006683" class="icon" viewBox="0 0 1024 1024" version="1.1" xmlns="http://www.w3.org/2000/svg" p-id="24335" width="32" height="32" xmlns:xlink="http://www.w3.org/1999/xlink"><defs><style type="text/css"></style></defs><path d="M512 954.181818c-128 0-239.709091-79.127273-281.6-193.163636-20.945455 30.254545-37.236364 41.890909-55.854545 41.890909-9.309091 0-23.272727-4.654545-30.254546-27.927273-6.981818-18.618182-23.272727-69.818182 81.454546-325.818182-2.327273-34.909091 2.327273-69.818182 6.981818-104.727272C260.654545 176.872727 370.036364 69.818182 512 69.818182s251.345455 107.054545 279.272727 274.618182c6.981818 32.581818 9.309091 65.163636 6.981818 97.745454 23.272727 53.527273 109.381818 260.654545 83.781819 332.8-9.309091 23.272727-25.6 25.6-30.254546 27.927273-13.963636 0-30.254545-4.654545-58.181818-44.218182C751.709091 872.727273 640 954.181818 512 954.181818zM249.018182 633.018182l11.636363 65.163636c20.945455 121.018182 128 209.454545 251.345455 209.454546s232.727273-90.763636 251.345455-214.109091l11.636363-69.818182 32.581818 62.836364c13.963636 27.927273 25.6 46.545455 34.909091 55.854545 0-58.181818-48.872727-197.818182-88.436363-286.254545l-2.327273-4.654546v-4.654545c2.327273-30.254545 0-60.509091-6.981818-90.763637C726.109091 244.363636 653.963636 116.363636 512 116.363636s-214.109091 128-232.727273 237.381819c-4.654545 34.909091-9.309091 67.490909-6.981818 100.072727v4.654545l-2.327273 6.981818C197.818182 637.672727 186.181818 712.145455 186.181818 742.4c6.981818-9.309091 16.290909-25.6 32.581818-51.2l30.254546-58.181818z" fill="#424752" p-id="24336"></path><path d="M474.763636 958.836364l-4.654545-46.545455 23.272727-2.327273c27.927273-2.327273 174.545455-2.327273 204.8-2.327272s53.527273-6.981818 65.163637-11.636364c-9.309091-4.654545-25.6-9.309091-51.2-11.636364l-23.272728-2.327272 2.327273-46.545455 23.272727 2.327273c62.836364 2.327273 100.072727 25.6 100.072728 58.181818 0 39.563636-60.509091 58.181818-116.363637 58.181818-65.163636 0-179.2 0-200.145454 2.327273l-23.272728 2.327273z" fill="#424752" p-id="24337"></path><path d="M537.6 956.509091h-23.272727c-25.6 0-88.436364 0-134.981818-2.327273H325.818182c-55.854545 0-116.363636-18.618182-116.363637-58.181818 0-32.581818 39.563636-55.854545 100.072728-58.181818l23.272727-2.327273 2.327273 46.545455-23.272728 2.327272c-25.6 2.327273-44.218182 6.981818-51.2 11.636364 11.636364 4.654545 32.581818 11.636364 65.163637 11.636364h55.854545c46.545455 0 109.381818 2.327273 132.654546 2.327272h23.272727v46.545455zM256 442.181818h535.272727v46.545455H256z" fill="#424752" p-id="24338"></path><path d="M370.036364 442.181818h46.545454v232.727273h-46.545454z" fill="#424752" p-id="24339"></path></svg>