<?xml version="1.0" standalone="no"?><!DOCTYPE svg PUBLIC "-//W3C//DTD SVG 1.1//EN" "http://www.w3.org/Graphics/SVG/1.1/DTD/svg11.dtd"><svg t="1590546790267" class="icon" viewBox="0 0 1024 1024" version="1.1" xmlns="http://www.w3.org/2000/svg" p-id="4525" xmlns:xlink="http://www.w3.org/1999/xlink" width="16" height="16"><defs><style type="text/css"></style></defs><path d="M506.759529 1024a28.400941 28.400941 0 0 1-14.245647-3.824941L75.414588 778.511059a28.521412 28.521412 0 0 1-14.245647-24.847059V270.336a28.521412 28.521412 0 0 1 14.245647-24.816941L492.513882 3.855059a28.400941 28.400941 0 0 1 28.521412 0l417.069177 241.664a29.063529 29.063529 0 0 1 14.275764 24.816941v483.328a29.063529 29.063529 0 0 1-14.275764 24.847059L521.035294 1020.175059a28.400941 28.400941 0 0 1-14.275765 3.824941zM118.211765 737.039059l388.547764 225.28 388.577883-225.28V286.72L506.759529 61.711059 118.211765 286.72v450.319059z m388.547764 92.400941a28.400941 28.400941 0 0 1-14.245647-3.824941l-249.283764-144.384a29.063529 29.063529 0 0 1-14.245647-24.847059v-288.768a29.063529 29.063529 0 0 1 14.245647-24.816941l249.283764-144.384a28.400941 28.400941 0 0 1 28.521412 0l249.283765 144.384a29.063529 29.063529 0 0 1 14.245647 24.816941v288.768a29.063529 29.063529 0 0 1-14.245647 24.847059L521.035294 825.615059a28.400941 28.400941 0 0 1-14.275765 3.824941z m-220.762353-189.44l220.762353 127.759059 220.762353-127.759059v-256l-220.762353-127.728941-220.762353 127.728941v256z m-28.521411-243.952941a26.593882 26.593882 0 0 1-14.245647-3.855059L75.414588 295.183059A28.762353 28.762353 0 0 1 64.993882 256a28.431059 28.431059 0 0 1 38.942118-10.480941l167.815529 97.28a28.611765 28.611765 0 0 1 10.450824 39.152941 28.702118 28.702118 0 0 1-24.696471 14.095059z m498.567529 0a28.521412 28.521412 0 1 1-14.245647-53.248l167.815529-97.28a28.431059 28.431059 0 0 1 38.942118 10.480941 28.762353 28.762353 0 0 1-10.450823 39.152941l-167.785412 97.039059a26.593882 26.593882 0 0 1-14.275765 3.855059zM506.759529 1024a28.551529 28.551529 0 0 1-28.521411-28.672v-194.56a28.611765 28.611765 0 0 1 28.521411-28.672 28.611765 28.611765 0 0 1 28.521412 28.672v194.56a28.551529 28.551529 0 0 1-28.521412 28.672z m0-483.328A28.551529 28.551529 0 0 1 478.268235 512V222.991059a28.611765 28.611765 0 0 1 28.521412-28.672 28.611765 28.611765 0 0 1 28.521412 28.672V512a28.551529 28.551529 0 0 1-28.521412 28.672z m249.283765 144.384a28.400941 28.400941 0 0 1-14.245647-3.824941l-249.283765-144.384a28.762353 28.762353 0 0 1-10.450823-39.183059 28.431059 28.431059 0 0 1 38.972235-10.480941l249.283765 144.384a28.762353 28.762353 0 0 1 10.450823 39.152941 28.491294 28.491294 0 0 1-24.69647 14.336z m-498.567529 0a28.702118 28.702118 0 1 1-14.245647-53.519059l249.283764-144.353882a28.431059 28.431059 0 0 1 38.972236 10.480941 28.762353 28.762353 0 0 1-10.450824 39.152941L271.751529 681.261176a28.400941 28.400941 0 0 1-14.275764 3.824942z" fill="#2c2c2c" p-id="4526"></path></svg>